<svg width="512" height="468" viewBox="0 0 512 468" fill="none" xmlns="http://www.w3.org/2000/svg">
<g id="Group">
<g id="Group_2">
<g id="Group_3">
<g id="Group_4">
<g id="Group_5">
<g id="Group_6">
<g id="Group_7">
<g id="Group_8">
<path id="middle" d="M256 254.319C285.445 254.319 309.314 230.45 309.314 201.005C309.314 171.56 285.445 147.691 256 147.691C226.555 147.691 202.686 171.56 202.686 201.005C202.686 230.45 226.555 254.319 256 254.319Z" fill="#FFBDBC"/>
</g>
</g>
</g>
</g>
</g>
</g>
<g id="Group_9">
<g id="Group_10">
<g id="Group_11">
<g id="Group_12">
<g id="Group_13">
<g id="Group_14">
<path id="right" d="M404.772 254.319C434.217 254.319 458.086 230.45 458.086 201.005C458.086 171.56 434.217 147.691 404.772 147.691C375.327 147.691 351.458 171.56 351.458 201.005C351.458 230.45 375.327 254.319 404.772 254.319Z" fill="#FFBDBC"/>
</g>
</g>
</g>
</g>
</g>
</g>
<g id="Group_15">
<g id="Group_16">
<g id="Group_17">
<g id="Group_18">
<g id="Group_19">
<g id="Group_20">
<path id="left" d="M107.228 254.319C136.673 254.319 160.542 230.45 160.542 201.005C160.542 171.56 136.673 147.691 107.228 147.691C77.7835 147.691 53.914 171.56 53.914 201.005C53.914 230.45 77.7835 254.319 107.228 254.319Z" fill="#FFBDBC"/>
</g>
</g>
</g>
</g>
</g>
</g>
</g>
<g id="Group_21">
<path id="box" d="M478.473 0.632996H33.527C15.04 0.632996 0 15.673 0 34.159V433.841C0 452.327 15.04 467.367 33.527 467.367H478.472C496.959 467.367 511.999 452.327 511.999 433.841V34.159C512 15.673 496.96 0.632996 478.473 0.632996V0.632996ZM20 34.159C20 26.701 26.068 20.633 33.527 20.633H478.472C485.931 20.633 491.999 26.701 491.999 34.159V84.664H20V34.159ZM492 433.841C492 441.299 485.932 447.367 478.473 447.367H33.527C26.068 447.367 20 441.299 20 433.841V104.664H492V433.841Z" fill="#020288"/>
<path id="Vector" d="M444.843 42.648H441.149C435.627 42.648 431.149 47.126 431.149 52.648C431.149 58.17 435.627 62.648 441.149 62.648H444.843C450.365 62.648 454.843 58.17 454.843 52.648C454.843 47.126 450.365 42.648 444.843 42.648Z" fill="#020288"/>
<path id="Vector_2" d="M382.794 42.648H379.101C373.579 42.648 369.101 47.126 369.101 52.648C369.101 58.17 373.579 62.648 379.101 62.648H382.794C388.316 62.648 392.794 58.17 392.794 52.648C392.794 47.126 388.316 42.648 382.794 42.648Z" fill="#020288"/>
<path id="Vector_3" d="M320.746 42.648H317.052C311.53 42.648 307.052 47.126 307.052 52.648C307.052 58.17 311.53 62.648 317.052 62.648H320.746C326.268 62.648 330.746 58.17 330.746 52.648C330.746 47.126 326.269 42.648 320.746 42.648Z" fill="#020288"/>
<path id="Vector_4" d="M137.468 42.648H67.157C61.635 42.648 57.157 47.126 57.157 52.648C57.157 58.17 61.635 62.648 67.157 62.648H137.468C142.99 62.648 147.468 58.17 147.468 52.648C147.468 47.126 142.99 42.648 137.468 42.648Z" fill="#020288"/>
<path id="lflowerr" d="M94.612 211.005H97.227V213.621C97.227 219.143 101.705 223.621 107.227 223.621C112.749 223.621 117.227 219.143 117.227 213.621V211.005H119.843C125.365 211.005 129.843 206.527 129.843 201.005C129.843 195.483 125.365 191.005 119.843 191.005H117.227V188.39C117.227 182.868 112.749 178.39 107.227 178.39C101.705 178.39 97.227 182.868 97.227 188.39V191.005H94.612C89.09 191.005 84.612 195.483 84.612 201.005C84.612 206.527 89.09 211.005 94.612 211.005Z" fill="#020288"/>
<path id="mflower" d="M243.385 211.005H246V213.621C246 219.143 250.478 223.621 256 223.621C261.522 223.621 266 219.143 266 213.621V211.005H268.615C274.137 211.005 278.615 206.527 278.615 201.005C278.615 195.483 274.137 191.005 268.615 191.005H266V188.39C266 182.868 261.522 178.39 256 178.39C250.478 178.39 246 182.868 246 188.39V191.005H243.385C237.863 191.005 233.385 195.483 233.385 201.005C233.385 206.527 237.862 211.005 243.385 211.005Z" fill="#020288"/>
<path id="rflower" d="M392.156 211.005H394.772V213.621C394.772 219.143 399.25 223.621 404.772 223.621C410.294 223.621 414.772 219.143 414.772 213.621V211.005H417.387C422.909 211.005 427.387 206.527 427.387 201.005C427.387 195.483 422.909 191.005 417.387 191.005H414.772V188.39C414.772 182.868 410.294 178.39 404.772 178.39C399.25 178.39 394.772 182.868 394.772 188.39V191.005H392.156C386.634 191.005 382.156 195.483 382.156 201.005C382.156 206.527 386.634 211.005 392.156 211.005Z" fill="#020288"/>
<path id="Vector_5" d="M53.914 336.149H159.526C165.048 336.149 169.526 331.671 169.526 326.149C169.526 320.627 165.048 316.149 159.526 316.149H53.914C48.392 316.149 43.914 320.627 43.914 326.149C43.914 331.671 48.392 336.149 53.914 336.149V336.149Z" fill="#020288"/>
<path id="Vector_6" d="M53.914 380.787H159.526C165.048 380.787 169.526 376.309 169.526 370.787C169.526 365.265 165.048 360.787 159.526 360.787H53.914C48.392 360.787 43.914 365.265 43.914 370.787C43.914 376.309 48.392 380.787 53.914 380.787V380.787Z" fill="#020288"/>
<path id="Vector_7" d="M203.193 336.149H308.806C314.328 336.149 318.806 331.671 318.806 326.149C318.806 320.627 314.328 316.149 308.806 316.149H203.193C197.671 316.149 193.193 320.627 193.193 326.149C193.193 331.671 197.671 336.149 203.193 336.149V336.149Z" fill="#020288"/>
<path id="Vector_8" d="M203.193 380.787H308.806C314.328 380.787 318.806 376.309 318.806 370.787C318.806 365.265 314.328 360.787 308.806 360.787H203.193C197.671 360.787 193.193 365.265 193.193 370.787C193.193 376.309 197.671 380.787 203.193 380.787V380.787Z" fill="#020288"/>
<path id="Vector_9" d="M351.966 336.149H457.578C463.1 336.149 467.578 331.671 467.578 326.149C467.578 320.627 463.1 316.149 457.578 316.149H351.966C346.444 316.149 341.966 320.627 341.966 326.149C341.966 331.671 346.443 336.149 351.966 336.149Z" fill="#020288"/>
<path id="Vector_10" d="M351.966 380.787H457.578C463.1 380.787 467.578 376.309 467.578 370.787C467.578 365.265 463.1 360.787 457.578 360.787H351.966C346.444 360.787 341.966 365.265 341.966 370.787C341.966 376.309 346.443 380.787 351.966 380.787Z" fill="#020288"/>
</g>
</g>
</svg>
